<?xml version="1.0" encoding="UTF-8" standalone="no"?>
<!-- Created with Inkscape (http://www.inkscape.org/) -->

<svg
   xmlns:dc="http://purl.org/dc/elements/1.1/"
   xmlns:cc="http://creativecommons.org/ns#"
   xmlns:rdf="http://www.w3.org/1999/02/22-rdf-syntax-ns#"
   xmlns:svg="http://www.w3.org/2000/svg"
   xmlns="http://www.w3.org/2000/svg"
   xmlns:sodipodi="http://sodipodi.sourceforge.net/DTD/sodipodi-0.dtd"
   xmlns:inkscape="http://www.inkscape.org/namespaces/inkscape"
   width="389.94739"
   height="1246.6206"
   id="svg3178"
   version="1.1"
   inkscape:version="0.48.4 r9939"
   sodipodi:docname="New document 13">
  <defs
     id="defs3180" />
  <sodipodi:namedview
     id="base"
     pagecolor="#ffffff"
     bordercolor="#666666"
     borderopacity="1.0"
     inkscape:pageopacity="0.0"
     inkscape:pageshadow="2"
     inkscape:zoom="0.35"
     inkscape:cx="261.40227"
     inkscape:cy="660.45313"
     inkscape:document-units="px"
     inkscape:current-layer="layer1"
     showgrid="false"
     fit-margin-top="0"
     fit-margin-left="0"
     fit-margin-right="0"
     fit-margin-bottom="0"
     inkscape:window-width="1680"
     inkscape:window-height="998"
     inkscape:window-x="0"
     inkscape:window-y="0"
     inkscape:window-maximized="1" />
  <metadata
     id="metadata3183">
    <rdf:RDF>
      <cc:Work
         rdf:about="">
        <dc:format>image/svg+xml</dc:format>
        <dc:type
           rdf:resource="http://purl.org/dc/dcmitype/StillImage" />
        <dc:title></dc:title>
      </cc:Work>
    </rdf:RDF>
  </metadata>
  <g
     inkscape:label="Layer 1"
     inkscape:groupmode="layer"
     id="layer1"
     transform="translate(-113.59773,53.805265)">
    <path
       style="fill:#000000;fill-opacity:1"
       d="m 202.35679,1191.3892 c -12.8995,-1.5633 -16.947,-3.1963 -17.7455,-7.1593 -0.3028,-1.5025 -1.2382,-4.824 -2.0787,-7.3811 -2.5408,-7.7296 0.7416,-17.6763 8.7648,-26.5601 3.9095,-4.3288 3.9423,-4.5028 2.364,-12.5465 -0.488,-2.4873 1.7649,-10.4589 4.4282,-15.6687 1.9247,-3.7649 2.1605,-5.321 1.5818,-10.4365 -0.3741,-3.3065 -1.3069,-7.2238 -2.0729,-8.7051 -3.038,-5.8749 -4.4373,-11.7668 -4.4512,-18.7424 -0.013,-6.575 -0.31,-7.6792 -2.9573,-11 -2.616,-3.2815 -6.3325,-13.5227 -7.7812,-21.4414 -0.2767,-1.5125 -0.9285,-2.75 -1.4486,-2.75 -0.52,0 -0.6855,-0.4207 -0.3677,-0.9349 0.3178,-0.5143 0.062,-3.1018 -0.5694,-5.75 -1.5732,-6.6033 -1.2758,-9.3834 1.621,-15.1508 2.0815,-4.1441 2.508,-6.4852 2.6069,-14.3095 0.065,-5.1452 0.4026,-10.669 0.75,-12.2752 0.3475,-1.60616 0.1179,-15.33116 -0.5101,-30.49996 -0.6281,-15.1688 -0.9321,-27.92837 -0.6756,-28.35457 0.2565,-0.4263 0.4555,-7.3114 0.4422,-15.3003 -0.022,-13.3508 0.1424,-14.6918 2.0358,-16.5853 1.7904,-1.7904 1.9001,-2.4053 0.8385,-4.6997 -1.9887,-4.2977 -2.3167,-16.0059 -0.5251,-18.7404 2.0043,-3.0588 2.0115,-9.2758 0.012,-10.0432 -1.1055,-0.4242 -1.4672,-1.9139 -1.3396,-5.5182 0.096,-2.7153 0.4696,-4.4599 0.83,-3.8768 1.0686,1.7291 5.0254,-3.2882 6.3812,-8.0914 0.6783,-2.4033 1.213,-8.7096 1.1881,-14.0138 -0.037,-7.8759 -0.3786,-10.0126 -1.8631,-11.6537 -2.2271,-2.462 -4.4354,-11.0471 -5.5822,-21.7022 -0.4736,-4.4 -1.4285,-9.35 -2.122,-11 -1.8136,-4.3151 -1.891,-5.0151 -2.9313,-26.5 -1.2125,-25.0395 -2.0716,-37.12 -2.7736,-39 -0.308,-0.825 -0.4705,-2.6522 -0.3611,-4.0605 0.3211,-4.1317 -1.8609,-32.0323 -2.8889,-36.9395 -1.4378,-6.8634 -5.0935,-34.5541 -5.6768,-43 -0.2849,-4.125 -1.0201,-9.3 -1.6339,-11.5 -0.6137,-2.2 -1.2139,-7.6 -1.3337,-12 -0.8951,-32.8726 -0.8671,-37.1696 0.2602,-40.0184 0.6569,-1.66 1.5066,-6.385 1.8883,-10.5 0.4547,-4.9023 1.5028,-8.9636 3.0401,-11.7802 1.64738,-7.3985 1.99623,-22.3759 2.1873,-32.7014 0.1662,-9.35 0.2776,-19.8104 0.2476,-23.2452 -0.036,-4.1541 0.4885,-7.0741 1.5675,-8.7208 0.8921,-1.3615 1.7806,-4.6262 1.9745,-7.2548 0.1939,-2.6286 0.6537,-6.0193 1.0219,-7.535 0.3681,-1.5156 0.2081,-3.3156 -0.3556,-4 -2.0367,-2.4726 -1.3781,-14.7442 0.7913,-14.7442 0.4286,0 0.1049,-2.3005 -0.7193,-5.1121 -1.2463,-4.2513 -1.2962,-6.1455 -0.2965,-11.25 0.6611,-3.3759 1.6365,-6.6663 2.1676,-7.3121 0.531,-0.6458 0.6778,-2.6708 0.3262,-4.5 -0.5934,-3.0876 -1.5024,-3.7556 -12.6901,-9.3258 -6.628,-3.3 -12.5546,-6.4801 -13.1703,-7.0669 -0.6156,-0.5867 -5.8444,-3.4286 -11.6194,-6.3152 -13.2512,-6.6237 -22.8666,-13.2457 -22.9576,-15.8108 -0.023,-0.656 -0.9804,-2.7827 -2.127,-4.726 -4.0487,-6.862 -4.6094,-12.5999 -4.4187,-45.2158 0.1758,-30.0557 0.8489,-39.3171 4.1689,-57.3653 0.86,-4.675 1.9261,-11.2 2.3693,-14.5 0.7494,-5.5813 4.1176,-24.8263 5.9505,-34 1.7683,-8.8503 14.9393,-45.8123 16.926,-47.5 0.3238,-0.275 2.0739,-3.425 3.8892,-7 6.1901,-12.1905 11.4779,-16.4449 26.1994,-21.079 5.9229,-1.8645 11.0697,-4.0934 11.8067,-5.1132 0.9588,-1.3265 2.6315,-1.8078 6.2822,-1.8078 2.7364,0 6.6084,-0.6824 8.6043,-1.5163 8.55854,-1.8086 24.15953,-14.5046 30.5568,-22.323 1.9317,-2.4103 2.3023,-5.7014 0.75,-6.6607 -0.55,-0.34 -1,-1.7936 -1,-3.2303 0,-1.4367 -0.628,-3.3227 -1.3957,-4.191 -1.7062,-1.93 -4.6029,-10.3309 -4.6079,-13.3637 0,-1.2183 -1.3577,-5.815 -3.0128,-10.215 -4.348,-11.559605 -6.0786,-29.482205 -4.6347,-48.000005 0.5506,-7.0609 0.4715,-9.5592 -0.2692,-8.5 -0.577,0.825 -1.1234,3.3 -1.2142,5.5 -0.1322,3.2032 -0.2501,3.4318 -0.5916,1.1473 -0.2346,-1.5689 0.5549,-6.6342 1.7544,-11.2562 1.1995,-4.622 1.914,-9.0992 1.5878,-9.9493 -0.3262,-0.8502 -0.1867,-1.2945 0.3102,-0.9874 0.4968,0.307 1.9006,-2.7071 3.1194,-6.6981 1.2188,-3.991 2.5537,-7.7063 2.9663,-8.2563 0.4127,-0.55 1.914,-4.4945998 3.3362,-8.7657998 2.8391,-8.5257 5.4018,-13.281 13.5092,-25.0670002 9.2778,-13.4873 21.95,-23.7199 34.9665,-28.2346 16.3632,-5.6756 40.453,-7.0475 45.2514,-2.5772 1.1538,1.075 3.6435,2.2444 5.5326,2.5988 1.8892,0.3544 4.88779,1.9148 6.66349,3.4676 1.7758,1.5527 4.77291,3.1592 6.66031,3.57 4.4167,0.9613 13.743,10.2412 17.093,17.0082 1.3614,2.75 2.7597,5.225 3.1073,5.5 0.3476,0.275 2.2764,5.4235 4.2862,11.4411002 2.0099,6.0177 4.0293,11.4177 4.4877,12 0.4583,0.5824 1.1487,2.8589 1.534,5.0589 0.3854,2.1999998 1.5786,6.9249998 2.6515,10.4999998 1.073,3.575 2.3342,8.75 2.8029,11.5 2.0785,12.1974 5.5497,26.6643 8.2777,34.5 1.6277,4.675 3.1379,9.4 3.3561,10.5 0.2182,1.1 1.9867,9.768 3.93,19.2622 3.3032,16.138405 3.526,18.405705 3.421,34.826105 -0.087,13.6528 -0.4098,17.6781 -1.4484,18.0767 -0.7349,0.282 -1.3037,1.7102 -1.2641,3.1738 0.098,3.6253 -0.7971,7.1286 -3.1442,12.301 -2.1004,4.629 -2.5849,7.3259 -1.1575,6.4437 0.4757,-0.294 3.2882,0.6997 6.25,2.2083 6.3511,3.2348 11.754,4.9351 17.7128,5.5744 2.3801,0.2554 5.0801,1.1422 6,1.9708 0.9198,0.8287 3.2473,1.6543 5.1723,1.8348 2.9285,0.2746 3.6488,0.8323 4.411,3.4153 0.6591,2.2334 2.1799,3.7466 5.5,5.472 5.1341,2.6682 13.6417,10.936 14.6805,14.2667 0.3729,1.1958 1.021,2.3992 1.4401,2.6742 0.8708,0.5713 12.6397,23.4656 15.1647,29.5 4.9913,11.9285 8.669,23.118 14.4114,43.8466 2.3342,8.4258 9.8127,30.1875 12.9399,37.6534 1.663,3.9704 8.582,33.6669 10.4846,45 0.6925,4.125 1.3061,13.575 1.3635,21 0.092,11.9135 -0.153,14.0571 -2.0854,18.2409 -2.8497,6.1698 -9.545,12.3942 -18.0186,16.7515 -3.7354,1.9208 -7.0167,3.7475 -7.2917,4.0593 -1.324,1.5013 -16.3035,9.9781 -16.7837,9.4978 -0.3023,-0.3022 -0.3621,-0.6636 -0.1329,-0.8029 0.2291,-0.1394 1.8609,-1.2644 3.6261,-2.5 1.7653,-1.2357 3.4716,-2.2466 3.7919,-2.2466 0.3202,0 1.5483,-0.9 2.729,-2 2.7016,-2.5169 1.4371,-2.6019 -2.076,-0.1396 -1.4599,1.0233 -5.477,3.2266 -8.927,4.8964 -3.4499,1.6697 -6.8249,3.4738 -7.5,4.0092 -0.675,0.5353 -2.945,1.5268 -5.0444,2.2033 -5.5654,1.7934 -4.0737,2.0984 2.2456,0.4592 2.9842,-0.7741 5.5895,-1.2438 5.7895,-1.0438 0.2,0.2 -1.8968,1.4328 -4.6595,2.7395 -5.073,2.3993 -6.7447,4.1295 -3.0586,3.1655 1.1182,-0.2924 2,-0.031 2,0.5936 0,0.6142 -0.3375,1.1194 -0.75,1.1228 -0.4125,0 -3.1536,2.221 -6.0913,4.9281 -2.9378,2.707 -5.9753,5.1652 -6.75,5.4625 -0.7748,0.2973 -1.4087,0.9743 -1.4087,1.5045 0,0.5302 -0.8552,1.2354 -1.9006,1.5672 -1.0453,0.3318 -2.2167,1.8246 -2.6032,3.3174 -1.3652,5.2733 -1.2883,20.6046 0.1254,24.9991 0.7581,2.3567 1.3784,5.6192 1.3784,7.25 0,1.719 0.9219,3.887 2.1937,5.1587 2.6717,2.6717 4.1375,11.5579 2.6232,15.9019 -0.5664,1.6249 -0.753,4.6305 -0.4146,6.6794 0.7633,4.6211 0.7696,9.6007 0.018,14.4142 -0.4858,3.1124 -0.1729,4.0395 2.0018,5.9303 2.7639,2.4032 3.2008,5.1114 1.5325,9.4993 -1.0674,2.8074 -0.4016,5.7932 2.5377,11.3813 0.7232,1.375 1.3133,4.1576 1.3112,6.1837 0,2.026 0.3787,4.276 0.8462,5 0.4675,0.7239 0.9172,4.2413 0.9992,7.8163 0.1974,8.5994 1.9558,28.6615 2.869,32.7336 0.5081,2.2651 0.1936,4.3541 -1.0501,6.9748 -0.985,2.0758 -1.7025,5.6656 -1.6118,8.0638 0.09,2.3773 -0.3003,5.189 -0.8672,6.2482 -1.5347,2.8677 -2.985,11.226 -3.9304,22.6528 -0.6237,7.537 -1.5178,11.6498 -3.4502,15.8709 -1.7268,3.7718 -2.6104,7.4312 -2.614,10.8267 -0.01,6.409 -1.6288,12.5197 -4.0153,15.1292 -2.3018,2.5168 -3.9866,16.6426 -3.9609,33.2106 0.018,11.8784 -2.9166,37.8518 -5.736,50.762 -0.8375,3.8349 -3.2842,10.278 -5.4371,14.318 -3.6266,6.8053 -3.9774,8.1903 -4.7722,18.8393 -0.6862,9.1944 -0.5767,12.0577 0.5476,14.3114 1.1235,2.2521 1.1985,4.1957 0.3739,9.688 -2.3754,15.8219 -2.3767,16.0248 -0.1267,20.3416 2.6128,5.0126 3.0188,18.8059 0.6854,23.2791 -0.789,1.5125 -0.9908,2.75 -0.4484,2.75 0.5424,0 2.0918,1.1056 3.4431,2.4569 l 2.4569,2.457 -2.0494,5.1993 c -1.1272,2.8597 -1.817,5.805 -1.533,6.5452 0.2841,0.7401 0.1231,3.4511 -0.3576,6.0244 -0.6559,3.5107 -0.5264,5.2092 0.5188,6.8044 1.1883,1.8136 1.19,3.0724 0.011,8.5693 -0.7598,3.5439 -1.9163,7.7935 -2.5699,9.4435 -0.6537,1.65 -1.8239,9.075 -2.6004,16.49997 -0.7765,7.425 -1.8392,15.525 -2.3614,18 -3.8337,18.1682 -5.4759,24.9776 -6.801,28.2005 -0.8368,2.0353 -1.2801,4.62336 -0.9852,5.75136 0.3394,1.2976 0.146,1.8096 -0.5265,1.394 -0.7354,-0.4545 -0.7964,0.546 -0.1978,3.2486 0.4757,2.148 0.9154,9.5305 0.9771,16.4055 0.062,6.875 0.4227,14.075 0.8022,16 0.7895,4.0042 -1.0537,13.0538 -4.1754,20.5 -1.1528,2.75 -2.7751,7.475 -3.605,10.5 -0.8299,3.025 -4.7375,10.8948 -8.6837,17.4884 -3.9462,6.5936 -7.713,14.0186 -8.3707,16.5 -0.6577,2.4814 -2.1637,6.5086 -3.3466,8.9494 -1.1829,2.4408 -2.1535,4.9158 -2.1569,5.5 0,0.5842 -0.6672,2.3296 -1.4752,3.8787 -1.4887,2.8542 -0.8831,9.0968 1.5215,15.6835 0.502,1.375 0.9704,4.75 1.0409,7.5 0.071,2.75 0.7325,7.25 1.4711,10 1.9167,7.1371 1.5793,11.4874 -1.1776,15.1833 -1.306,1.7508 -2.3745,3.6167 -2.3745,4.1464 0,2.1403 -7.1916,7.0686 -13.1565,9.0159 -9.5753,3.126 -23.51471,5.419 -28.7507,4.7296 -23.4379,-3.0862 -33.3234,-5.775 -31.5833,-8.5906 0.3347,-0.5415 -0.318,-0.9846 -1.4505,-0.9846 -2.3868,0 -2.7635,-3.114 -0.9296,-7.6849 0.6212,-1.5483 1.728,-7.2549 2.4596,-12.6813 0.7316,-5.4264 2.1921,-11.5199 3.2456,-13.5411 1.5254,-2.9264 1.859,-5.3606 1.6385,-11.9523 -0.1524,-4.5527 -0.5461,-8.5467 -0.8751,-8.8757 -0.3289,-0.3289 -0.598,-1.3909 -0.598,-2.3599 0,-0.9691 -0.5784,-2.3566 -1.2853,-3.0834 -3.0472,-3.1328 -7.7147,-12.0907 -7.7147,-14.806 0,-1.625 -0.8996,-4.5563 -1.9992,-6.5139 -1.6945,-3.017 -1.9516,-5.0403 -1.687,-13.2804 0.3566,-11.1047 1.8599,-15.2171 7.8737,-21.5388 2.0968,-2.2043 3.8125,-4.1835 3.8125,-4.3983 0,-0.2147 2.1375,-3.5602 4.75,-7.4344 2.6125,-3.8741 5.7286,-8.6877 6.9247,-10.6967 1.1961,-2.0091 2.709,-4.2503 3.3619,-4.9805 0.9116,-1.0193 0.9212,-3.8691 0.041,-12.2714 -1.5273,-14.5872 -1.2531,-57.70136 0.5209,-81.90093 1.7255,-23.5366 1.6602,-22.9579 2.53,-22.4204 1.1475,0.7093 1.6685,-1.948 0.7374,-3.7613 -0.475,-0.9249 -1.2266,-5.0702 -1.6703,-9.2116 -0.755,-7.0463 -0.6541,-7.7251 1.5711,-10.5683 1.3078,-1.6711 3.1902,-3.0384 4.183,-3.0384 2.5642,0 4.1461,-2.298 4.7666,-6.9244 0.482,-3.5937 0.2684,-4.1253 -2.0899,-5.1998 -1.4447,-0.6582 -2.6314,-1.4621 -2.6371,-1.7863 -0.01,-0.3242 -0.4638,-5.7645 -1.018,-12.0895 -0.6208,-7.085 -0.6603,-13.3565 -0.1028,-16.3356 0.6541,-3.4955 0.5156,-6.267 -0.4999,-10 -2.9599,-10.8813 -6.7523,-49.8659 -6.8256,-70.1644 -0.038,-10.6472 -1.039,-16.9419 -3.3205,-20.8905 -0.283,-0.4897 -1.5717,1.9853 -2.8637,5.5 -1.292,3.5148 -3.0656,7.6513 -3.9413,9.1923 -0.8756,1.541 -1.3441,3.4481 -1.041,4.238 0.3108,0.8098 0.022,1.3324 -0.6629,1.1982 -0.8107,-0.1589 -1.1581,1.0909 -1.0459,3.762 1.9913,47.4092 1.6327,56.0446 -2.7382,65.9257 -1.3212,2.9867 -2.465,9.3932 -3.4412,19.274 -1.9841,20.082 -2.8919,23.4927 -7.5959,28.5372 -4.0633,4.3575 -4.5237,5.7156 -2.9404,8.6741 3.8089,7.1171 3.4606,23.4596 -0.63,29.5615 -1.7262,2.5749 -1.6858,5.4508 0.086,6.1307 2.3505,0.902 3.839,5.8114 2.8922,9.5391 -0.469,1.8468 -0.616,8.23927 -0.3267,14.20567 0.2893,5.9664 0.1885,11.0555 -0.224,11.309 -0.4125,0.2536 -0.75,4.0608 -0.75,8.4605 0,10.1365 -1.2915,19.134 -5.0073,34.88246 -4.3659,18.5042 -7.9958,36.2971 -7.9693,39.0636 0.013,1.34 1.1807,8.0614 2.5951,14.9364 1.4145,6.875 2.9017,14.3736 3.305,16.6635 0.4033,2.29 1.4855,5.3117 2.4049,6.7149 2.7748,4.2348 1.4591,15.7579 -2.6566,23.2677 -3.0936,5.6447 -9.9351,21.9357 -10.8575,25.8539 -0.5179,2.2 -1.3798,7.15 -1.9153,11 -0.5355,3.85 -1.6011,8.1424 -2.368,9.5386 -0.7708,1.4034 -1.5941,6.5749 -1.8412,11.5649 -0.4862,9.8195 -1.8962,13.6651 -6.6902,18.2465 -2.3926,2.2865 -4.6761,3.0923 -12.7081,4.4846 -11.3077,1.9602 -20.2446,1.9741 -36.0674,0.057 z m -3.5574,-46.0578 c -0.3667,-0.3666 -0.6667,-0.067 -0.6667,0.6667 0,0.7333 0.3,1.0333 0.6667,0.6667 0.3667,-0.3667 0.3667,-0.9667 0,-1.3334 z M 340.07748,526.66407 c 30.39735,-18.6468 71.94831,-54.6664 71.67331,-54.6664 -1.24161,0.5207 -23.00109,16.8749 -71.67331,54.6664 z m 96.05521,-81.1664 c 0,-0.275 -0.225,-0.5 -0.5,-0.5 -0.275,0 -0.5,0.225 -0.5,0.5 0,0.275 0.225,0.5 0.5,0.5 0.275,0 0.5,-0.225 0.5,-0.5 z m 3.6667,-1.1667 c -0.3667,-0.3667 -0.9667,-0.3667 -1.3333,0 -0.3667,0.3667 -0.067,0.6667 0.6666,0.6667 0.7334,0 1.0334,-0.3 0.6667,-0.6667 z m 3,-1 c -0.3667,-0.3667 -0.9667,-0.3667 -1.3333,0 -0.3667,0.3667 -0.067,0.6667 0.6666,0.6667 0.7334,0 1.0334,-0.3 0.6667,-0.6667 z m 0,-3 c -0.3667,-0.3667 -0.9667,-0.3667 -1.3333,0 -0.3667,0.3667 -0.067,0.6667 0.6666,0.6667 0.7334,0 1.0334,-0.3 0.6667,-0.6667 z m 30.3333,-16.8333 c 0,-0.275 -0.225,-0.5 -0.5,-0.5 -0.275,0 -0.5,0.225 -0.5,0.5 0,0.275 0.225,0.5 0.5,0.5 0.275,0 0.5,-0.225 0.5,-0.5 z m -28.8652,-48.1435 c 1.9279,-2.0522 2.0146,-2.6046 0.8732,-5.5674 -2.8669,-7.4422 -5.4068,-12.7891 -6.0751,-12.7891 -0.3909,0 -0.6548,-0.5625 -0.5867,-1.25 0.068,-0.6875 -2.9068,-7.2061 -6.6111,-14.4858 -3.7043,-7.2796 -6.7487,-14.0296 -6.7655,-15 -6.58125,-11.7924 -7.93516,-13.9661 -11.37514,-19.8558 4.88874,15.1982 13.79411,50.3479 18.52644,74.6425 0.94887,0.2382 0.64773,0.7093 1.3795,1.1646 l 4.2472,-2.2901 c 2.336,-1.2595 5.2104,-3.3153 6.3876,-4.5683 z m -255.7012,-3.6065 c -0.3782,-3.9875 -1.0338,-9.5 -1.4569,-12.25 -0.4231,-2.75 -0.5885,-5.2984 -0.3677,-5.663 0.2208,-0.3646 -1.4009,-2.5388 -3.6037,-4.8316 -2.2029,-2.2927 -4.0615,-4.8069 -4.1303,-5.587 -0.2703,-3.0676 4e-4,-8.139 0.6763,-12.6684 0.0967,-2.8161 0.41124,-7.1698 0.3853,-9.2 -0.1323,-4.2804 -2.973,4.772 -7.8293,24.95 -4.3842,18.2162 -4.5443,20.6842 -1.4952,23.0478 2.7644,2.1429 16.4027,9.4159 17.6985,9.4382 0.4458,0.01 0.5011,-3.2485 0.123,-7.236 z m 191.8682,-135.8867 c -1.4716,-1.1969 -116.46554,81.0807 -115.86224,82.6889 10.31128,-4.723 62.63237,-37.1081 115.86224,-82.6889 z m -188.3018,903.13713 c 0,-0.7333 0.3,-1.0333 0.6667,-0.6667 0.3667,0.3667 0.3667,0.9667 0,1.3334 -0.3667,0.3666 -0.6667,0.067 -0.6667,-0.6667 z m 6,-21.5 c 0,-0.275 0.225,-0.5 0.5,-0.5 0.275,0 0.5,0.225 0.5,0.5 0,0.275 -0.225,0.5 -0.5,0.5 -0.275,0 -0.5,-0.225 -0.5,-0.5 z m -2,-9.0003 c 0,-0.275 0.225,-0.5 0.5,-0.5 0.275,0 0.5,0.225 0.5,0.5 0,0.275 -0.225,0.5 -0.5,0.5 -0.275,0 -0.5,-0.225 -0.5,-0.5 z m -1,-4 c 0,-0.275 0.225,-0.5 0.5,-0.5 0.275,0 0.5,0.225 0.5,0.5 0,0.275 -0.225,0.5 -0.5,0.5 -0.275,0 -0.5,-0.225 -0.5,-0.5 z m -19,-67.9997 c 0,-0.275 0.225,-0.5 0.5,-0.5 0.275,0 0.5,0.225 0.5,0.5 0,0.275 -0.225,0.5 -0.5,0.5 -0.275,0 -0.5,-0.225 -0.5,-0.5 z m 132,-31 c 0,-0.275 0.225,-0.5 0.5,-0.5 0.275,0 0.5,0.225 0.5,0.5 0,0.275 -0.225,0.5 -0.5,0.5 -0.275,0 -0.5,-0.225 -0.5,-0.5 z m -23,-56.99996 c 0,-0.275 0.225,-0.5 0.5,-0.5 0.275,0 0.5,0.225 0.5,0.5 0,0.275 -0.225,0.5 -0.5,0.5 -0.275,0 -0.5,-0.225 -0.5,-0.5 z m 1,-12.99997 c 0,-0.275 0.225,-0.5 0.5,-0.5 0.275,0 0.5,0.225 0.5,0.5 0,0.275 -0.225,0.5 -0.5,0.5 -0.275,0 -0.5,-0.225 -0.5,-0.5 z m -1,-15 c 0,-0.275 0.225,-0.5 0.5,-0.5 0.275,0 0.5,0.225 0.5,0.5 0,0.275 -0.225,0.5 -0.5,0.5 -0.275,0 -0.5,-0.225 -0.5,-0.5 z m 6,-43 c 0,-0.275 0.225,-0.5 0.5,-0.5 0.275,0 0.5,0.225 0.5,0.5 0,0.275 -0.225,0.5 -0.5,0.5 -0.275,0 -0.5,-0.225 -0.5,-0.5 z m 3,0 c 0,-0.275 0.225,-0.5 0.5,-0.5 0.275,0 0.5,0.225 0.5,0.5 0,0.275 -0.225,0.5 -0.5,0.5 -0.275,0 -0.5,-0.225 -0.5,-0.5 z m -106,-15 c 0,-0.275 0.225,-0.5 0.5,-0.5 0.275,0 0.5,0.225 0.5,0.5 0,0.275 -0.225,0.5 -0.5,0.5 -0.275,0 -0.5,-0.225 -0.5,-0.5 z m 106,-18 c 0,-0.275 0.225,-0.5 0.5,-0.5 0.275,0 0.5,0.225 0.5,0.5 0,0.275 -0.225,0.5 -0.5,0.5 -0.275,0 -0.5,-0.225 -0.5,-0.5 z m 20,0 c 0,-0.275 0.225,-0.5 0.5,-0.5 0.275,0 0.5,0.225 0.5,0.5 0,0.275 -0.225,0.5 -0.5,0.5 -0.275,0 -0.5,-0.225 -0.5,-0.5 z m -1,-4 c 0,-0.275 0.225,-0.5 0.5,-0.5 0.275,0 0.5,0.225 0.5,0.5 0,0.275 -0.225,0.5 -0.5,0.5 -0.275,0 -0.5,-0.225 -0.5,-0.5 z m -136,-51 c 0,-0.275 0.225,-0.5 0.5,-0.5 0.275,0 0.5,0.225 0.5,0.5 0,0.275 -0.225,0.5 -0.5,0.5 -0.275,0 -0.5,-0.225 -0.5,-0.5 z m 122,-17 c 0,-0.275 0.225,-0.5 0.5,-0.5 0.275,0 0.5,0.225 0.5,0.5 0,0.275 -0.225,0.5 -0.5,0.5 -0.275,0 -0.5,-0.225 -0.5,-0.5 z m 2,-7 c 0,-0.275 0.225,-0.5 0.5,-0.5 0.275,0 0.5,0.225 0.5,0.5 0,0.275 -0.225,0.5 -0.5,0.5 -0.275,0 -0.5,-0.225 -0.5,-0.5 z m 155,-331.0002 c 0,-0.275 0.225,-0.5 0.5,-0.5 0.275,0 0.5,0.225 0.5,0.5 0,0.275 -0.225,0.5 -0.5,0.5 -0.275,0 -0.5,-0.225 -0.5,-0.5 z m -231,-308.9998 c 0,-0.275 0.225,-0.5 0.5,-0.5 0.275,0 0.5,0.225 0.5,0.5 0,0.275 -0.225,0.5 -0.5,0.5 -0.275,0 -0.5,-0.225 -0.5,-0.5 z"
       id="path3120-4"
       inkscape:connector-curvature="0"
       sodipodi:nodetypes="cccscscscsssccsscscccccccccsssssccsscssscccssccsccccssscssscscsscscccscccscscsccsccsscscsssscccccssccccscccsccccsscsssscccssscccsssccscccscccscccccscccccccccccccssssscssccsccsccscsccccccsssscscccsssscsssccsscscscsscccsccccssccsccccscccssssssccscssccscssscssscccscccccsssssscssscssscsssssssccscsccccccccssccccsscccccsccssssssssssssssssssssssssssssssssssssssssssssssssssssssssssssssssssssssssssssssssssssssssssssssss" />
  </g>
</svg>
